<svg height="512" viewBox="0 0 512 512" width="512" xmlns="http://www.w3.org/2000/svg"><g id="filled_outline" data-name="filled outline"><path d="m392 424h-304v-32h-16v-344h232 88z" fill="#683b0d"/><path d="m360 392h-288v-368h232v56h56z" fill="#fbb540"/><path d="m72 112a32 32 0 0 1 0-64 8 8 0 0 1 0 16 16 16 0 1 0 15.5 20.006 8 8 0 0 1 15.5 3.988 31.983 31.983 0 0 1 -31 24.006z" fill="#cbcbcb"/><path d="m72 192a32 32 0 0 1 0-64 8 8 0 0 1 0 16 16 16 0 1 0 15.5 20.006 8 8 0 0 1 15.5 3.988 31.983 31.983 0 0 1 -31 24.006z" fill="#cbcbcb"/><path d="m72 272a32 32 0 0 1 0-64 8 8 0 0 1 0 16 16 16 0 1 0 15.5 20.006 8 8 0 0 1 15.5 3.988 31.983 31.983 0 0 1 -31 24.006z" fill="#cbcbcb"/><path d="m72 344a32 32 0 0 1 0-64 8 8 0 0 1 0 16 16 16 0 1 0 15.5 20.006 8 8 0 0 1 15.5 3.988 31.983 31.983 0 0 1 -31 24.006z" fill="#cbcbcb"/><g fill="#d18d28"><path d="m312 120h-176a8 8 0 0 1 0-16h176a8 8 0 0 1 0 16z"/><path d="m312 168h-176a8 8 0 0 1 0-16h176a8 8 0 0 1 0 16z"/><path d="m312 216h-176a8 8 0 0 1 0-16h176a8 8 0 0 1 0 16z"/><path d="m312 264h-176a8 8 0 0 1 0-16h176a8 8 0 0 1 0 16z"/><path d="m360 80h-56v-56z"/><path d="m200 312h-64a8 8 0 0 1 0-16h64a8 8 0 0 1 0 16z"/></g><path d="m347.144 244.86h32v224h-32z" fill="#0a9acd" transform="matrix(.863 .506 -.506 .863 230.271 -134.635)"/><path d="m286.291 488 6.42-42.6 27.609 16.179z" fill="#e6a98d"/><path d="m413.84 233.878h24v32h-24z" fill="#cbcbcb" transform="matrix(.506 -.863 .863 .506 -5.055 490.934)"/><path d="m426.193 217.631-8.09 13.8 27.609 16.18 8.09-13.8a16 16 0 0 0 -5.715-21.894 16 16 0 0 0 -21.894 5.714z" fill="#fbb540"/><path d="m136 120h176a8 8 0 0 0 0-16h-176a8 8 0 0 0 0 16z"/><path d="m136 168h176a8 8 0 0 0 0-16h-176a8 8 0 0 0 0 16z"/><path d="m136 216h176a8 8 0 0 0 0-16h-176a8 8 0 0 0 0 16z"/><path d="m136 264h176a8 8 0 0 0 0-16h-176a8 8 0 0 0 0 16z"/><path d="m136 312h64a8 8 0 0 0 0-16h-64a8 8 0 0 0 0 16z"/><path d="m452.132 205.015a24.024 24.024 0 0 0 -32.841 8.571l-19.291 32.914v-198.5a8 8 0 0 0 -8-8h-60.686s-24.038-24.48-25-23.656a7.976 7.976 0 0 0 -2.314-.344h-232a8 8 0 0 0 -8 8v25.013a32 32 0 0 0 0 61.974v18.026a32 32 0 0 0 0 61.974v18.026a32 32 0 0 0 0 61.974v10.026a32 32 0 0 0 0 61.974v49.013a8 8 0 0 0 8 8h8v24a8 8 0 0 0 8 8h203.292l-5.482 9.354a7.938 7.938 0 0 0 -.981 2.721c-.008.046-.021.085-.028.132l-.02.131v.03l-6.4 42.44a8 8 0 0 0 12.817 7.511l34.028-26.419c2.18-1.693 3.245-2.729 3.076-4.119l18.624-31.781h45.074a8 8 0 0 0 8-8v-82.562l60.7-103.583a24.027 24.027 0 0 0 -8.568-32.84zm-14.155 12.965a8 8 0 0 1 8.922 11.786l-4.045 6.9-13.8-8.09 4.046-6.9a7.944 7.944 0 0 1 4.877-3.696zm-120.515 232.652-13.8-8.09 105.164-179.453 13.8 8.09zm-5.462-407.318 28.686 28.686h-28.686zm104.916 205.97 4.044-6.9 13.805 8.09-4.045 6.9zm-32.916-193.284v216a8.041 8.041 0 0 0 .152 1.546l-16.152 27.562v-221.108a7.978 7.978 0 0 0 -2.336-5.649l-.007-.008-18.343-18.343zm-304-24h216v48a8 8 0 0 0 8 8h48v240.41l-32.578 55.59h-239.422v-41.012a31.974 31.974 0 0 0 22.991-22.994 8 8 0 0 0 -15.5-3.988 15.948 15.948 0 0 1 -7.491 9.844v-54.862a31.974 31.974 0 0 0 22.991-22.994 8 8 0 0 0 -15.5-3.988 15.948 15.948 0 0 1 -7.491 9.844v-62.862a31.974 31.974 0 0 0 22.991-22.994 8 8 0 0 0 -15.5-3.988 15.948 15.948 0 0 1 -7.491 9.844v-62.862a31.974 31.974 0 0 0 22.991-22.994 8 8 0 0 0 -15.5-3.988 15.948 15.948 0 0 1 -7.491 9.844zm-24 48a16 16 0 0 1 8-13.835v27.67a16 16 0 0 1 -8-13.835zm0 80a16 16 0 0 1 8-13.835v27.67a16 16 0 0 1 -8-13.835zm0 80a16 16 0 0 1 8-13.835v27.67a16 16 0 0 1 -8-13.835zm0 72a16 16 0 0 1 8-13.835v27.67a16 16 0 0 1 -8-13.835zm40 104v-16h214.045l-9.377 16zm202.861 42.276 7.219 4.231-8.9 6.908zm85.139-42.276h-27.7l27.7-47.261z"/></g></svg>